<?xml version="1.0" standalone="no"?>
<!DOCTYPE svg PUBLIC "-//W3C//DTD SVG 20010904//EN"
 "http://www.w3.org/TR/2001/REC-SVG-20010904/DTD/svg10.dtd">
<svg version="1.0" xmlns="http://www.w3.org/2000/svg"
 width="500.000000pt" height="500.000000pt" viewBox="0 0 500.000000 500.000000"
 preserveAspectRatio="xMidYMid meet">

<g transform="translate(0.000000,500.000000) scale(0.100000,-0.100000)"
fill="#000000" stroke="none">
<path d="M1806 2975 c-3 -9 -6 -22 -5 -28 0 -7 4 -4 7 6 5 12 20 -23 46 -110
22 -70 42 -132 44 -137 3 -5 11 7 18 28 9 26 10 42 3 54 -5 9 -22 58 -37 107
-22 73 -32 91 -49 93 -12 2 -23 -4 -27 -13z"/>
<path d="M1987 2976 c-3 -8 -2 -16 3 -18 4 -2 19 -63 32 -135 21 -124 24 -133
46 -133 27 0 27 -5 -6 160 -24 119 -30 135 -49 138 -11 2 -23 -4 -26 -12z"/>
<path d="M2205 2980 c-18 -8 -17 -9 8 -9 61 -2 128 -60 146 -128 13 -45 5 -80
-23 -113 -16 -20 -14 -19 12 4 40 37 55 87 42 137 -24 88 -112 140 -185 109z"/>
<path d="M2400 2979 c0 -6 6 -16 13 -23 6 -7 48 -70 92 -139 64 -102 84 -127
102 -127 13 0 23 3 23 6 0 4 -41 71 -92 150 -75 117 -96 144 -115 144 -13 0
-23 -5 -23 -11z"/>
<path d="M2614 2974 c3 -9 6 -21 7 -27 0 -7 4 -3 9 8 13 29 12 35 -6 35 -11 0
-14 -5 -10 -16z"/>
<path d="M2724 2971 c-23 -10 -45 -25 -50 -32 -6 -12 -5 -12 9 0 13 10 40 12
125 6 98 -6 110 -5 116 10 3 10 5 19 4 20 -2 1 -39 5 -83 9 -67 5 -87 3 -121
-13z"/>
<path d="M2976 2938 c21 -29 46 -64 56 -77 14 -18 18 -42 18 -97 0 -72 1 -74
24 -74 24 0 25 2 28 94 2 63 0 92 -7 86 -6 -5 -28 16 -55 55 -37 53 -50 64
-73 65 l-29 0 38 -52z"/>
<path d="M3160 2958 l-23 -33 34 30 c19 17 36 31 38 33 2 1 -2 2 -10 2 -9 0
-26 -15 -39 -32z"/>
<path d="M2129 2929 c-27 -38 -36 -108 -19 -149 27 -65 108 -103 173 -82 l32
10 -33 1 c-76 2 -142 69 -150 151 -3 36 0 57 12 75 23 36 12 31 -15 -6z"/>
<path d="M2652 2897 c-41 -98 31 -207 137 -207 38 0 101 32 119 60 11 18 9 18
-24 -2 -69 -41 -160 -12 -200 64 -19 36 -18 44 4 25 35 -32 70 -38 129 -23 65
17 71 22 52 40 -12 12 -23 12 -77 -2 -56 -15 -65 -15 -90 -2 -16 10 -29 27
-33 45 l-6 30 -11 -28z"/>
<path d="M3119 2903 c-13 -16 -12 -17 4 -4 16 13 21 21 13 21 -2 0 -10 -8 -17
-17z"/>
<path d="M1791 2894 c0 -11 3 -14 6 -6 3 7 2 16 -1 19 -3 4 -6 -2 -5 -13z"/>
<path d="M1781 2844 c0 -11 3 -14 6 -6 3 7 2 16 -1 19 -3 4 -6 -2 -5 -13z"/>
<path d="M1771 2794 c0 -11 3 -14 6 -6 3 7 2 16 -1 19 -3 4 -6 -2 -5 -13z"/>
<path d="M2400 2732 c0 -23 4 -42 9 -42 6 0 7 17 4 38 -8 51 -13 53 -13 4z"/>
<path d="M1759 2730 c-7 -35 -4 -48 7 -38 3 4 4 21 2 40 l-3 33 -6 -35z"/>
<path d="M2727 2476 c-8 -20 20 -43 35 -28 14 14 3 42 -16 42 -7 0 -16 -6 -19
-14z"/>
<path d="M1880 2391 c0 -4 23 -6 51 -3 l51 5 -3 -147 -4 -146 22 0 c23 0 23 1
23 146 l0 147 50 -5 c28 -3 50 -1 50 3 0 5 -54 9 -120 9 -66 0 -120 -4 -120
-9z"/>
<path d="M2225 2390 c-18 -8 -17 -9 8 -9 90 -3 179 -124 149 -204 -18 -46 -7
-43 17 5 l21 43 0 -62 c0 -60 1 -63 25 -63 19 0 25 5 25 22 0 21 0 21 21 2 17
-15 36 -19 100 -19 62 0 78 3 74 13 -3 8 -5 18 -5 24 0 7 -28 8 -80 3 -111
-10 -110 -10 -110 136 l0 119 -25 0 c-24 0 -25 -3 -25 -62 -1 -61 -1 -62 -14
-33 -32 72 -118 112 -181 85z"/>
<path d="M2690 2391 c0 -5 9 -11 20 -14 19 -5 20 -14 20 -125 0 -111 -1 -120
-20 -125 -11 -3 -20 -10 -20 -16 0 -7 30 -11 85 -10 l86 1 48 47 c26 27 53 50
61 53 17 5 4 28 -17 28 -9 0 -38 -20 -64 -45 -56 -52 -79 -57 -79 -17 0 28 6
42 55 127 42 74 14 41 -34 -39 -22 -39 -41 -82 -41 -98 0 -18 -5 -28 -15 -28
-13 0 -15 20 -15 121 0 112 1 121 20 126 39 10 19 23 -35 23 -30 0 -55 -4 -55
-9z"/>
<path d="M2912 2392 c101 -249 122 -292 146 -292 13 0 22 4 20 8 -97 244 -121
292 -145 292 -14 0 -23 -4 -21 -8z"/>
<path d="M2142 2321 c-27 -48 -28 -90 -2 -141 32 -62 132 -101 180 -70 11 7 6
10 -20 10 -92 0 -180 135 -139 212 20 38 3 28 -19 -11z"/>
</g>
</svg>
